<svg width="24" height="24" viewBox="0 0 24 24" fill="none" xmlns="http://www.w3.org/2000/svg">
<path fill-rule="evenodd" clip-rule="evenodd" d="M8.254 1.99976H15.747C19.608 1.99976 22 4.39276 22 8.25576V15.7558C22 19.6078 19.608 21.9998 15.747 21.9998H8.244C4.392 21.9998 2 19.6078 2.001 15.7528C2.001 15.3308 2.344 14.9878 2.766 14.9878C3.189 14.9878 3.531 15.3308 3.531 15.7528C3.531 18.7868 5.202 20.4668 8.254 20.4668H15.747C18.79 20.4668 20.47 18.7958 20.47 15.7528V8.25276C20.47 5.20976 18.8 3.52976 15.747 3.52976H8.253C5.21 3.52976 3.53 5.20976 3.53 8.25276V10.5658V10.5838C3.53 11.0018 3.192 11.3398 2.774 11.3398H2.765H2.763C2.341 11.3398 1.999 10.9968 2 10.5748V8.25276C2 4.39276 4.41 1.99976 8.254 1.99976ZM7.5207 10.8038C8.1817 10.8038 8.7187 11.3408 8.7187 11.9998C8.7187 12.6598 8.1817 13.1968 7.5207 13.1968C6.8607 13.1968 6.3227 12.6598 6.3227 11.9998C6.3227 11.3408 6.8607 10.8038 7.5207 10.8038ZM12.0002 10.8038C12.6612 10.8038 13.1982 11.3408 13.1982 11.9998C13.1982 12.6598 12.6612 13.1968 12.0002 13.1968C11.3402 13.1968 10.8022 12.6598 10.8022 11.9998C10.8022 11.3408 11.3402 10.8038 12.0002 10.8038ZM17.6772 11.9998C17.6772 11.3408 17.1402 10.8038 16.4792 10.8038C15.8192 10.8038 15.2812 11.3408 15.2812 11.9998C15.2812 12.6598 15.8192 13.1968 16.4792 13.1968C17.1402 13.1968 17.6772 12.6598 17.6772 11.9998Z" fill="#200E32"/>
</svg>
